<?xml version="1.0" encoding="UTF-8" standalone="no"?>
<!DOCTYPE svg PUBLIC "-//W3C//DTD SVG 1.1//EN"
 "http://www.w3.org/Graphics/SVG/1.1/DTD/svg11.dtd">
<!-- Generated by graphviz version 12.2.1 (20241206.2353)
 -->
<!-- Title: CommonProjectGraph Pages: 1 -->
<svg width="1347pt" height="884pt"
 viewBox="0.00 0.00 1347.16 884.00" xmlns="http://www.w3.org/2000/svg" xmlns:xlink="http://www.w3.org/1999/xlink">
<g id="graph0" class="graph" transform="scale(1 1) rotate(0) translate(4 880)">
<title>CommonProjectGraph</title>
<polygon fill="white" stroke="none" points="-4,4 -4,-880 1343.16,-880 1343.16,4 -4,4"/>
<!-- c:project -->
<g id="node1" class="node">
<title>c:project</title>
<path fill="lightblue" stroke="black" d="M744.58,-876C744.58,-876 707.58,-876 707.58,-876 701.58,-876 695.58,-870 695.58,-864 695.58,-864 695.58,-852 695.58,-852 695.58,-846 701.58,-840 707.58,-840 707.58,-840 744.58,-840 744.58,-840 750.58,-840 756.58,-846 756.58,-852 756.58,-852 756.58,-864 756.58,-864 756.58,-870 750.58,-876 744.58,-876"/>
<text text-anchor="middle" x="726.08" y="-852.58" font-family="Arial" font-size="14.00">Проект</text>
</g>
<!-- c:dev&#45;objects -->
<g id="node2" class="node">
<title>c:dev&#45;objects</title>
<path fill="lightblue" stroke="black" d="M789.2,-792C789.2,-792 662.95,-792 662.95,-792 656.95,-792 650.95,-786 650.95,-780 650.95,-780 650.95,-768 650.95,-768 650.95,-762 656.95,-756 662.95,-756 662.95,-756 789.2,-756 789.2,-756 795.2,-756 801.2,-762 801.2,-768 801.2,-768 801.2,-780 801.2,-780 801.2,-786 795.2,-792 789.2,-792"/>
<text text-anchor="middle" x="726.08" y="-768.58" font-family="Arial" font-size="14.00">Объекты разработки</text>
</g>
<!-- c:project&#45;&gt;c:dev&#45;objects -->
<g id="edge1" class="edge">
<title>c:project&#45;&gt;c:dev&#45;objects</title>
<path fill="none" stroke="black" d="M726.08,-839.61C726.08,-829.17 726.08,-815.64 726.08,-803.66"/>
<polygon fill="black" stroke="black" points="729.58,-803.88 726.08,-793.88 722.58,-803.88 729.58,-803.88"/>
<text text-anchor="middle" x="768.45" y="-812.5" font-family="Arial" font-size="10.00">fepro, femsq, fedoc</text>
</g>
<!-- c:layer -->
<g id="node3" class="node">
<title>c:layer</title>
<path fill="lightblue" stroke="black" d="M697.08,-708C697.08,-708 667.08,-708 667.08,-708 661.08,-708 655.08,-702 655.08,-696 655.08,-696 655.08,-684 655.08,-684 655.08,-678 661.08,-672 667.08,-672 667.08,-672 697.08,-672 697.08,-672 703.08,-672 709.08,-678 709.08,-684 709.08,-684 709.08,-696 709.08,-696 709.08,-702 703.08,-708 697.08,-708"/>
<text text-anchor="middle" x="682.08" y="-684.58" font-family="Arial" font-size="14.00">Слой</text>
</g>
<!-- c:dev&#45;objects&#45;&gt;c:layer -->
<g id="edge2" class="edge">
<title>c:dev&#45;objects&#45;&gt;c:layer</title>
<path fill="none" stroke="black" d="M705.03,-755.8C699.84,-750.59 694.78,-744.5 691.33,-738 688.31,-732.31 686.27,-725.75 684.89,-719.38"/>
<polygon fill="black" stroke="black" points="688.39,-719.12 683.31,-709.83 681.49,-720.27 688.39,-719.12"/>
<text text-anchor="middle" x="718.7" y="-728.5" font-family="Arial" font-size="10.00">fepro, femsq</text>
</g>
<!-- c:project&#45;database -->
<g id="node5" class="node">
<title>c:project&#45;database</title>
<path fill="lightblue" stroke="black" d="M804.08,-708C804.08,-708 740.08,-708 740.08,-708 734.08,-708 728.08,-702 728.08,-696 728.08,-696 728.08,-684 728.08,-684 728.08,-678 734.08,-672 740.08,-672 740.08,-672 804.08,-672 804.08,-672 810.08,-672 816.08,-678 816.08,-684 816.08,-684 816.08,-696 816.08,-696 816.08,-702 810.08,-708 804.08,-708"/>
<text text-anchor="middle" x="772.08" y="-684.58" font-family="Arial" font-size="14.00">БД проекта</text>
</g>
<!-- c:dev&#45;objects&#45;&gt;c:project&#45;database -->
<g id="edge4" class="edge">
<title>c:dev&#45;objects&#45;&gt;c:project&#45;database</title>
<path fill="none" stroke="black" d="M736.1,-755.58C739.3,-749.98 742.85,-743.73 746.08,-738 749.68,-731.6 753.52,-724.69 757.12,-718.19"/>
<polygon fill="black" stroke="black" points="760,-720.21 761.77,-709.77 753.87,-716.83 760,-720.21"/>
<text text-anchor="middle" x="764.55" y="-728.5" font-family="Arial" font-size="10.00">fedoc</text>
</g>
<!-- c:backend -->
<g id="node4" class="node">
<title>c:backend</title>
<path fill="lightblue" stroke="black" d="M691.95,-624C691.95,-624 654.2,-624 654.2,-624 648.2,-624 642.2,-618 642.2,-612 642.2,-612 642.2,-600 642.2,-600 642.2,-594 648.2,-588 654.2,-588 654.2,-588 691.95,-588 691.95,-588 697.95,-588 703.95,-594 703.95,-600 703.95,-600 703.95,-612 703.95,-612 703.95,-618 697.95,-624 691.95,-624"/>
<text text-anchor="middle" x="673.08" y="-600.58" font-family="Arial" font-size="14.00">Бэкенд</text>
</g>
<!-- c:layer&#45;&gt;c:backend -->
<g id="edge3" class="edge">
<title>c:layer&#45;&gt;c:backend</title>
<path fill="none" stroke="black" d="M680.17,-671.61C679.02,-661.17 677.54,-647.64 676.22,-635.66"/>
<polygon fill="black" stroke="black" points="679.72,-635.43 675.15,-625.87 672.76,-636.19 679.72,-635.43"/>
<text text-anchor="middle" x="705.49" y="-644.5" font-family="Arial" font-size="10.00">fepro, femsq</text>
</g>
<!-- c:backend&#45;database -->
<g id="node6" class="node">
<title>c:backend&#45;database</title>
<path fill="lightblue" stroke="black" d="M384.2,-540C384.2,-540 317.95,-540 317.95,-540 311.95,-540 305.95,-534 305.95,-528 305.95,-528 305.95,-516 305.95,-516 305.95,-510 311.95,-504 317.95,-504 317.95,-504 384.2,-504 384.2,-504 390.2,-504 396.2,-510 396.2,-516 396.2,-516 396.2,-528 396.2,-528 396.2,-534 390.2,-540 384.2,-540"/>
<text text-anchor="middle" x="351.08" y="-516.58" font-family="Arial" font-size="14.00">БД бэкенда</text>
</g>
<!-- c:backend&#45;&gt;c:backend&#45;database -->
<g id="edge5" class="edge">
<title>c:backend&#45;&gt;c:backend&#45;database</title>
<path fill="none" stroke="black" d="M641.75,-605.3C573.16,-605.34 412.44,-601.92 370.33,-570 364.17,-565.33 359.97,-558.35 357.11,-551.19"/>
<polygon fill="black" stroke="black" points="360.53,-550.38 354.18,-541.89 353.85,-552.48 360.53,-550.38"/>
<text text-anchor="middle" x="397.7" y="-560.5" font-family="Arial" font-size="10.00">fepro, femsq</text>
</g>
<!-- c:backend&#45;framework -->
<g id="node10" class="node">
<title>c:backend&#45;framework</title>
<path fill="lightblue" stroke="black" d="M775.45,-372C775.45,-372 656.7,-372 656.7,-372 650.7,-372 644.7,-366 644.7,-360 644.7,-360 644.7,-348 644.7,-348 644.7,-342 650.7,-336 656.7,-336 656.7,-336 775.45,-336 775.45,-336 781.45,-336 787.45,-342 787.45,-348 787.45,-348 787.45,-360 787.45,-360 787.45,-366 781.45,-372 775.45,-372"/>
<text text-anchor="middle" x="716.08" y="-348.57" font-family="Arial" font-size="14.00">Фреймворк бакенда</text>
</g>
<!-- c:backend&#45;&gt;c:backend&#45;framework -->
<g id="edge9" class="edge">
<title>c:backend&#45;&gt;c:backend&#45;framework</title>
<path fill="none" stroke="black" d="M659.5,-587.67C650.62,-575.19 639.83,-557.54 635.08,-540 630.89,-524.56 631.18,-519.52 635.08,-504 646.75,-457.51 676.33,-409.89 696.33,-381.38"/>
<polygon fill="black" stroke="black" points="699.1,-383.52 702.08,-373.35 693.41,-379.45 699.1,-383.52"/>
<text text-anchor="middle" x="671.68" y="-476.5" font-family="Arial" font-size="10.00">fepro, femsq</text>
</g>
<!-- c:backend&#45;language -->
<g id="node11" class="node">
<title>c:backend&#45;language</title>
<path fill="lightblue" stroke="black" d="M806.2,-540C806.2,-540 655.95,-540 655.95,-540 649.95,-540 643.95,-534 643.95,-528 643.95,-528 643.95,-516 643.95,-516 643.95,-510 649.95,-504 655.95,-504 655.95,-504 806.2,-504 806.2,-504 812.2,-504 818.2,-510 818.2,-516 818.2,-516 818.2,-528 818.2,-528 818.2,-534 812.2,-540 806.2,-540"/>
<text text-anchor="middle" x="731.08" y="-516.58" font-family="Arial" font-size="14.00">Язык программирования</text>
</g>
<!-- c:backend&#45;&gt;c:backend&#45;language -->
<g id="edge10" class="edge">
<title>c:backend&#45;&gt;c:backend&#45;language</title>
<path fill="none" stroke="black" d="M685.38,-587.61C693.22,-576.52 703.54,-561.94 712.38,-549.43"/>
<polygon fill="black" stroke="black" points="715,-551.79 717.92,-541.6 709.29,-547.74 715,-551.79"/>
<text text-anchor="middle" x="732.93" y="-560.5" font-family="Arial" font-size="10.00">fepro, femsq</text>
</g>
<!-- c:backend&#45;api -->
<g id="node12" class="node">
<title>c:backend&#45;api</title>
<path fill="lightblue" stroke="black" d="M441.7,-204C441.7,-204 372.45,-204 372.45,-204 366.45,-204 360.45,-198 360.45,-192 360.45,-192 360.45,-180 360.45,-180 360.45,-174 366.45,-168 372.45,-168 372.45,-168 441.7,-168 441.7,-168 447.7,-168 453.7,-174 453.7,-180 453.7,-180 453.7,-192 453.7,-192 453.7,-198 447.7,-204 441.7,-204"/>
<text text-anchor="middle" x="407.08" y="-180.57" font-family="Arial" font-size="14.00">API бакенда</text>
</g>
<!-- c:backend&#45;&gt;c:backend&#45;api -->
<g id="edge11" class="edge">
<title>c:backend&#45;&gt;c:backend&#45;api</title>
<path fill="none" stroke="black" d="M641.87,-605.01C588.19,-603.21 484.08,-590.96 484.08,-523 484.08,-523 484.08,-523 484.08,-269 484.08,-244.94 466.25,-225.05 447.75,-210.89"/>
<polygon fill="black" stroke="black" points="449.8,-208.05 439.63,-205.08 445.73,-213.75 449.8,-208.05"/>
<text text-anchor="middle" x="511.45" y="-392.5" font-family="Arial" font-size="10.00">fepro, femsq</text>
</g>
<!-- c:backend&#45;security -->
<g id="node13" class="node">
<title>c:backend&#45;security</title>
<path fill="lightblue" stroke="black" d="M675.7,-204C675.7,-204 540.45,-204 540.45,-204 534.45,-204 528.45,-198 528.45,-192 528.45,-192 528.45,-180 528.45,-180 528.45,-174 534.45,-168 540.45,-168 540.45,-168 675.7,-168 675.7,-168 681.7,-168 687.7,-174 687.7,-180 687.7,-180 687.7,-192 687.7,-192 687.7,-198 681.7,-204 675.7,-204"/>
<text text-anchor="middle" x="608.08" y="-180.57" font-family="Arial" font-size="14.00">Безопасность бакенда</text>
</g>
<!-- c:backend&#45;&gt;c:backend&#45;security -->
<g id="edge12" class="edge">
<title>c:backend&#45;&gt;c:backend&#45;security</title>
<path fill="none" stroke="black" d="M641.86,-596.57C609.03,-585.58 562.08,-562.89 562.08,-523 562.08,-523 562.08,-523 562.08,-269 562.08,-247.2 565.34,-240.97 576.08,-222 577.81,-218.95 579.85,-215.94 582.05,-213.05"/>
<polygon fill="black" stroke="black" points="584.69,-215.35 588.46,-205.45 579.33,-210.83 584.69,-215.35"/>
<text text-anchor="middle" x="589.45" y="-392.5" font-family="Arial" font-size="10.00">fepro, femsq</text>
</g>
<!-- c:backend&#45;cache -->
<g id="node14" class="node">
<title>c:backend&#45;cache</title>
<path fill="lightblue" stroke="black" d="M205.33,-204C205.33,-204 130.83,-204 130.83,-204 124.83,-204 118.83,-198 118.83,-192 118.83,-192 118.83,-180 118.83,-180 118.83,-174 124.83,-168 130.83,-168 130.83,-168 205.33,-168 205.33,-168 211.33,-168 217.33,-174 217.33,-180 217.33,-180 217.33,-192 217.33,-192 217.33,-198 211.33,-204 205.33,-204"/>
<text text-anchor="middle" x="168.08" y="-180.57" font-family="Arial" font-size="14.00">Кэш бакенда</text>
</g>
<!-- c:backend&#45;&gt;c:backend&#45;cache -->
<g id="edge13" class="edge">
<title>c:backend&#45;&gt;c:backend&#45;cache</title>
<path fill="none" stroke="black" d="M641.92,-603.82C604.76,-601.34 541.57,-593.67 493.08,-570 464.49,-556.04 439.08,-554.82 439.08,-523 439.08,-523 439.08,-523 439.08,-269 439.08,-225.43 309.12,-202.88 229.19,-193.13"/>
<polygon fill="black" stroke="black" points="229.63,-189.66 219.29,-191.96 228.81,-196.61 229.63,-189.66"/>
<text text-anchor="middle" x="449.95" y="-392.5" font-family="Arial" font-size="10.00">fepro</text>
</g>
<!-- c:backend&#45;reactive -->
<g id="node15" class="node">
<title>c:backend&#45;reactive</title>
<path fill="lightblue" stroke="black" d="M1326.7,-204C1326.7,-204 1191.45,-204 1191.45,-204 1185.45,-204 1179.45,-198 1179.45,-192 1179.45,-192 1179.45,-180 1179.45,-180 1179.45,-174 1185.45,-168 1191.45,-168 1191.45,-168 1326.7,-168 1326.7,-168 1332.7,-168 1338.7,-174 1338.7,-180 1338.7,-180 1338.7,-192 1338.7,-192 1338.7,-198 1332.7,-204 1326.7,-204"/>
<text text-anchor="middle" x="1259.08" y="-180.57" font-family="Arial" font-size="14.00">Реактивность бакенда</text>
</g>
<!-- c:backend&#45;&gt;c:backend&#45;reactive -->
<g id="edge14" class="edge">
<title>c:backend&#45;&gt;c:backend&#45;reactive</title>
<path fill="none" stroke="black" d="M704.18,-590.59C707.14,-589.58 710.14,-588.69 713.08,-588 819.59,-563.02 1201.08,-632.4 1201.08,-523 1201.08,-523 1201.08,-523 1201.08,-269 1201.08,-247.08 1215.07,-226.91 1229.3,-212.06"/>
<polygon fill="black" stroke="black" points="1231.37,-214.94 1236.07,-205.44 1226.47,-209.93 1231.37,-214.94"/>
<text text-anchor="middle" x="1211.95" y="-392.5" font-family="Arial" font-size="10.00">fepro</text>
</g>
<!-- c:backend&#45;migrations -->
<g id="node16" class="node">
<title>c:backend&#45;migrations</title>
<path fill="lightblue" stroke="black" d="M984.33,-204C984.33,-204 873.83,-204 873.83,-204 867.83,-204 861.83,-198 861.83,-192 861.83,-192 861.83,-180 861.83,-180 861.83,-174 867.83,-168 873.83,-168 873.83,-168 984.33,-168 984.33,-168 990.33,-168 996.33,-174 996.33,-180 996.33,-180 996.33,-192 996.33,-192 996.33,-198 990.33,-204 984.33,-204"/>
<text text-anchor="middle" x="929.08" y="-180.57" font-family="Arial" font-size="14.00">Миграции бакенда</text>
</g>
<!-- c:backend&#45;&gt;c:backend&#45;migrations -->
<g id="edge15" class="edge">
<title>c:backend&#45;&gt;c:backend&#45;migrations</title>
<path fill="none" stroke="black" d="M704.23,-590.8C707.19,-589.75 710.16,-588.79 713.08,-588 824.71,-557.72 965.08,-638.67 965.08,-523 965.08,-523 965.08,-523 965.08,-269 965.08,-249.36 956.31,-229.13 947.43,-213.69"/>
<polygon fill="black" stroke="black" points="950.67,-212.27 942.46,-205.57 944.7,-215.92 950.67,-212.27"/>
<text text-anchor="middle" x="992.45" y="-392.5" font-family="Arial" font-size="10.00">fepro, femsq</text>
</g>
<!-- c:backend&#45;monitoring -->
<g id="node17" class="node">
<title>c:backend&#45;monitoring</title>
<path fill="lightblue" stroke="black" d="M1149.7,-204C1149.7,-204 1026.45,-204 1026.45,-204 1020.45,-204 1014.45,-198 1014.45,-192 1014.45,-192 1014.45,-180 1014.45,-180 1014.45,-174 1020.45,-168 1026.45,-168 1026.45,-168 1149.7,-168 1149.7,-168 1155.7,-168 1161.7,-174 1161.7,-180 1161.7,-180 1161.7,-192 1161.7,-192 1161.7,-198 1155.7,-204 1149.7,-204"/>
<text text-anchor="middle" x="1088.08" y="-180.57" font-family="Arial" font-size="14.00">Мониторинг бакенда</text>
</g>
<!-- c:backend&#45;&gt;c:backend&#45;monitoring -->
<g id="edge16" class="edge">
<title>c:backend&#45;&gt;c:backend&#45;monitoring</title>
<path fill="none" stroke="black" d="M704.19,-590.62C707.15,-589.61 710.14,-588.71 713.08,-588 823.97,-561.33 858.93,-599.62 969.08,-570 1014.95,-557.66 1065.08,-570.51 1065.08,-523 1065.08,-523 1065.08,-523 1065.08,-269 1065.08,-250.44 1070.61,-230.36 1076.25,-214.72"/>
<polygon fill="black" stroke="black" points="1079.43,-216.21 1079.75,-205.62 1072.89,-213.69 1079.43,-216.21"/>
<text text-anchor="middle" x="1092.45" y="-392.5" font-family="Arial" font-size="10.00">fepro, femsq</text>
</g>
<!-- c:backend&#45;stack -->
<g id="node29" class="node">
<title>c:backend&#45;stack</title>
<path fill="lightblue" stroke="black" d="M925.45,-540C925.45,-540 848.7,-540 848.7,-540 842.7,-540 836.7,-534 836.7,-528 836.7,-528 836.7,-516 836.7,-516 836.7,-510 842.7,-504 848.7,-504 848.7,-504 925.45,-504 925.45,-504 931.45,-504 937.45,-510 937.45,-516 937.45,-516 937.45,-528 937.45,-528 937.45,-534 931.45,-540 925.45,-540"/>
<text text-anchor="middle" x="887.08" y="-516.58" font-family="Arial" font-size="14.00">Стек бакенда</text>
</g>
<!-- c:backend&#45;&gt;c:backend&#45;stack -->
<g id="edge28" class="edge">
<title>c:backend&#45;&gt;c:backend&#45;stack</title>
<path fill="none" stroke="black" d="M704.44,-591.45C707.35,-590.26 710.26,-589.09 713.08,-588 735.48,-579.29 741.52,-578.29 764.08,-570 786.19,-561.88 810.43,-552.68 831.5,-544.59"/>
<polygon fill="black" stroke="black" points="832.71,-547.87 840.79,-541.01 830.2,-541.34 832.71,-547.87"/>
<text text-anchor="middle" x="821.92" y="-560.5" font-family="Arial" font-size="10.00">fepro, femsq</text>
</g>
<!-- t:arangodb@3.11 -->
<g id="node7" class="node">
<title>t:arangodb@3.11</title>
<ellipse fill="lightgreen" stroke="black" cx="774.08" cy="-606" rx="52.06" ry="18"/>
<text text-anchor="middle" x="774.08" y="-600.58" font-family="Arial" font-size="14.00">ArangoDB</text>
</g>
<!-- c:project&#45;database&#45;&gt;t:arangodb@3.11 -->
<g id="edge6" class="edge">
<title>c:project&#45;database&#45;&gt;t:arangodb@3.11</title>
<path fill="none" stroke="black" d="M772.5,-671.61C772.76,-661.17 773.09,-647.64 773.38,-635.66"/>
<polygon fill="black" stroke="black" points="776.87,-635.96 773.62,-625.88 769.87,-635.79 776.87,-635.96"/>
<text text-anchor="middle" x="785.2" y="-644.5" font-family="Arial" font-size="10.00">fedoc</text>
</g>
<!-- t:postgresql@16 -->
<g id="node8" class="node">
<title>t:postgresql@16</title>
<ellipse fill="lightgreen" stroke="black" cx="351.08" cy="-438" rx="60.05" ry="18"/>
<text text-anchor="middle" x="351.08" y="-432.57" font-family="Arial" font-size="14.00">PostgreSQL</text>
</g>
<!-- c:backend&#45;database&#45;&gt;t:postgresql@16 -->
<g id="edge7" class="edge">
<title>c:backend&#45;database&#45;&gt;t:postgresql@16</title>
<path fill="none" stroke="black" d="M351.08,-503.61C351.08,-493.17 351.08,-479.64 351.08,-467.66"/>
<polygon fill="black" stroke="black" points="354.58,-467.88 351.08,-457.88 347.58,-467.88 354.58,-467.88"/>
<text text-anchor="middle" x="361.95" y="-476.5" font-family="Arial" font-size="10.00">fepro</text>
</g>
<!-- t:mssql@2022 -->
<g id="node9" class="node">
<title>t:mssql@2022</title>
<ellipse fill="lightgreen" stroke="black" cx="198.08" cy="-438" rx="74.52" ry="18"/>
<text text-anchor="middle" x="198.08" y="-432.57" font-family="Arial" font-size="14.00">MS SQL Server</text>
</g>
<!-- c:backend&#45;database&#45;&gt;t:mssql@2022 -->
<g id="edge8" class="edge">
<title>c:backend&#45;database&#45;&gt;t:mssql@2022</title>
<path fill="none" stroke="black" d="M318.63,-503.61C295.04,-490.97 262.97,-473.78 237.84,-460.31"/>
<polygon fill="black" stroke="black" points="239.69,-457.33 229.22,-455.69 236.38,-463.5 239.69,-457.33"/>
<text text-anchor="middle" x="297.24" y="-476.5" font-family="Arial" font-size="10.00">femsq</text>
</g>
<!-- t:spring&#45;boot@3.4.5 -->
<g id="node18" class="node">
<title>t:spring&#45;boot@3.4.5</title>
<ellipse fill="lightgreen" stroke="black" cx="715.08" cy="-270" rx="80.01" ry="18"/>
<text text-anchor="middle" x="715.08" y="-264.57" font-family="Arial" font-size="14.00">Spring Boot 3.4.5</text>
</g>
<!-- c:backend&#45;framework&#45;&gt;t:spring&#45;boot@3.4.5 -->
<g id="edge17" class="edge">
<title>c:backend&#45;framework&#45;&gt;t:spring&#45;boot@3.4.5</title>
<path fill="none" stroke="black" d="M665.29,-335.58C658.14,-330.97 651.74,-325.19 647.33,-318 640.48,-306.83 647.19,-297.64 658.64,-290.44"/>
<polygon fill="black" stroke="black" points="660.15,-293.6 667.33,-285.8 656.86,-287.42 660.15,-293.6"/>
<text text-anchor="middle" x="674.7" y="-308.5" font-family="Arial" font-size="10.00">fepro, femsq</text>
</g>
<!-- c:backend&#45;framework&#45;&gt;t:spring&#45;boot@3.4.5 -->
<g id="edge31" class="edge">
<title>c:backend&#45;framework&#45;&gt;t:spring&#45;boot@3.4.5</title>
<path fill="none" stroke="black" d="M715.87,-335.61C715.74,-325.17 715.57,-311.64 715.43,-299.66"/>
<polygon fill="black" stroke="black" points="718.93,-299.84 715.31,-289.88 711.93,-299.92 718.93,-299.84"/>
<text text-anchor="middle" x="743.01" y="-308.5" font-family="Arial" font-size="10.00">fepro, femsq</text>
</g>
<!-- t:java@21 -->
<g id="node19" class="node">
<title>t:java@21</title>
<ellipse fill="lightgreen" stroke="black" cx="731.08" cy="-438" rx="42.08" ry="18"/>
<text text-anchor="middle" x="731.08" y="-432.57" font-family="Arial" font-size="14.00">Java 21</text>
</g>
<!-- c:backend&#45;language&#45;&gt;t:java@21 -->
<g id="edge18" class="edge">
<title>c:backend&#45;language&#45;&gt;t:java@21</title>
<path fill="none" stroke="black" d="M731.08,-503.61C731.08,-493.17 731.08,-479.64 731.08,-467.66"/>
<polygon fill="black" stroke="black" points="734.58,-467.88 731.08,-457.88 727.58,-467.88 734.58,-467.88"/>
<text text-anchor="middle" x="758.45" y="-476.5" font-family="Arial" font-size="10.00">fepro, femsq</text>
</g>
<!-- t:graphql -->
<g id="node20" class="node">
<title>t:graphql</title>
<ellipse fill="lightgreen" stroke="black" cx="273.08" cy="-102" rx="48.57" ry="18"/>
<text text-anchor="middle" x="273.08" y="-96.58" font-family="Arial" font-size="14.00">GraphQL</text>
</g>
<!-- c:backend&#45;api&#45;&gt;t:graphql -->
<g id="edge19" class="edge">
<title>c:backend&#45;api&#45;&gt;t:graphql</title>
<path fill="none" stroke="black" d="M378.66,-167.61C357.74,-154.81 329.21,-137.35 307.08,-123.81"/>
<polygon fill="black" stroke="black" points="309.06,-120.92 298.7,-118.68 305.41,-126.89 309.06,-120.92"/>
<text text-anchor="middle" x="375.48" y="-140.5" font-family="Arial" font-size="10.00">fepro, femsq</text>
</g>
<!-- c:backend&#45;api&#45;&gt;t:graphql -->
<g id="edge33" class="edge">
<title>c:backend&#45;api&#45;&gt;t:graphql</title>
<path fill="none" stroke="black" d="M360.17,-178.83C326.06,-173.28 284.07,-163.84 273.33,-150 269.33,-144.84 267.8,-138.32 267.59,-131.79"/>
<polygon fill="black" stroke="black" points="271.08,-132.04 268.29,-121.82 264.1,-131.55 271.08,-132.04"/>
<text text-anchor="middle" x="300.7" y="-140.5" font-family="Arial" font-size="10.00">fepro, femsq</text>
</g>
<!-- t:jwt -->
<g id="node21" class="node">
<title>t:jwt</title>
<ellipse fill="lightgreen" stroke="black" cx="847.08" cy="-18" rx="29.61" ry="18"/>
<text text-anchor="middle" x="847.08" y="-12.57" font-family="Arial" font-size="14.00">JWT</text>
</g>
<!-- c:backend&#45;security&#45;&gt;t:jwt -->
<g id="edge20" class="edge">
<title>c:backend&#45;security&#45;&gt;t:jwt</title>
<path fill="none" stroke="black" d="M688.04,-177.99C764.04,-169.47 870.43,-152.08 896.08,-120 915.42,-95.81 891.87,-62.74 871.22,-41.13"/>
<polygon fill="black" stroke="black" points="873.88,-38.83 864.33,-34.24 868.93,-43.79 873.88,-38.83"/>
<text text-anchor="middle" x="914.14" y="-98.5" font-family="Arial" font-size="10.00">fepro</text>
</g>
<!-- t:spring&#45;security -->
<g id="node22" class="node">
<title>t:spring&#45;security</title>
<ellipse fill="lightgreen" stroke="black" cx="539.08" cy="-18" rx="71.52" ry="18"/>
<text text-anchor="middle" x="539.08" y="-12.57" font-family="Arial" font-size="14.00">Spring Security</text>
</g>
<!-- c:backend&#45;security&#45;&gt;t:spring&#45;security -->
<g id="edge21" class="edge">
<title>c:backend&#45;security&#45;&gt;t:spring&#45;security</title>
<path fill="none" stroke="black" d="M566.63,-167.55C546.99,-156.91 525.44,-141.23 514.33,-120 502.08,-96.6 511.91,-66.97 522.59,-45.86"/>
<polygon fill="black" stroke="black" points="525.54,-47.75 527.25,-37.29 519.39,-44.41 525.54,-47.75"/>
<text text-anchor="middle" x="525.2" y="-98.5" font-family="Arial" font-size="10.00">fepro</text>
</g>
<!-- t:no&#45;auth -->
<g id="node23" class="node">
<title>t:no&#45;auth</title>
<ellipse fill="lightgreen" stroke="black" cx="788.08" cy="-102" rx="98.97" ry="18"/>
<text text-anchor="middle" x="788.08" y="-96.58" font-family="Arial" font-size="14.00">Без аутентификации</text>
</g>
<!-- c:backend&#45;security&#45;&gt;t:no&#45;auth -->
<g id="edge22" class="edge">
<title>c:backend&#45;security&#45;&gt;t:no&#45;auth</title>
<path fill="none" stroke="black" d="M646.25,-167.61C674.31,-154.83 712.58,-137.4 742.29,-123.86"/>
<polygon fill="black" stroke="black" points="743.38,-127.21 751.03,-119.88 740.48,-120.84 743.38,-127.21"/>
<text text-anchor="middle" x="722.35" y="-140.5" font-family="Arial" font-size="10.00">femsq</text>
</g>
<!-- c:with&#45;security -->
<g id="node30" class="node">
<title>c:with&#45;security</title>
<path fill="lightblue" stroke="black" d="M659.2,-120C659.2,-120 556.95,-120 556.95,-120 550.95,-120 544.95,-114 544.95,-108 544.95,-108 544.95,-96 544.95,-96 544.95,-90 550.95,-84 556.95,-84 556.95,-84 659.2,-84 659.2,-84 665.2,-84 671.2,-90 671.2,-96 671.2,-96 671.2,-108 671.2,-108 671.2,-114 665.2,-120 659.2,-120"/>
<text text-anchor="middle" x="608.08" y="-96.58" font-family="Arial" font-size="14.00">С безопасностью</text>
</g>
<!-- c:backend&#45;security&#45;&gt;c:with&#45;security -->
<g id="edge35" class="edge">
<title>c:backend&#45;security&#45;&gt;c:with&#45;security</title>
<path fill="none" stroke="black" d="M608.08,-167.61C608.08,-157.17 608.08,-143.64 608.08,-131.66"/>
<polygon fill="black" stroke="black" points="611.58,-131.88 608.08,-121.88 604.58,-131.88 611.58,-131.88"/>
<text text-anchor="middle" x="618.95" y="-140.5" font-family="Arial" font-size="10.00">fepro</text>
</g>
<!-- c:no&#45;security -->
<g id="node31" class="node">
<title>c:no&#45;security</title>
<path fill="lightblue" stroke="black" d="M456.7,-120C456.7,-120 351.45,-120 351.45,-120 345.45,-120 339.45,-114 339.45,-108 339.45,-108 339.45,-96 339.45,-96 339.45,-90 345.45,-84 351.45,-84 351.45,-84 456.7,-84 456.7,-84 462.7,-84 468.7,-90 468.7,-96 468.7,-96 468.7,-108 468.7,-108 468.7,-114 462.7,-120 456.7,-120"/>
<text text-anchor="middle" x="404.08" y="-96.58" font-family="Arial" font-size="14.00">Без безопасности</text>
</g>
<!-- c:backend&#45;security&#45;&gt;c:no&#45;security -->
<g id="edge36" class="edge">
<title>c:backend&#45;security&#45;&gt;c:no&#45;security</title>
<path fill="none" stroke="black" d="M528.25,-171.97C506.77,-166.77 483.99,-159.65 464.08,-150 452.23,-144.25 440.52,-135.87 430.64,-127.77"/>
<polygon fill="black" stroke="black" points="433.15,-125.31 423.28,-121.48 428.61,-130.64 433.15,-125.31"/>
<text text-anchor="middle" x="477.58" y="-140.5" font-family="Arial" font-size="10.00">femsq</text>
</g>
<!-- t:hazelcast -->
<g id="node24" class="node">
<title>t:hazelcast</title>
<ellipse fill="lightgreen" stroke="black" cx="156.08" cy="-102" rx="50.07" ry="18"/>
<text text-anchor="middle" x="156.08" y="-96.58" font-family="Arial" font-size="14.00">Hazelcast</text>
</g>
<!-- c:backend&#45;cache&#45;&gt;t:hazelcast -->
<g id="edge23" class="edge">
<title>c:backend&#45;cache&#45;&gt;t:hazelcast</title>
<path fill="none" stroke="black" d="M169.42,-167.92C169.79,-158.95 169.71,-147.82 168.08,-138 167.69,-135.67 167.17,-133.29 166.55,-130.93"/>
<polygon fill="black" stroke="black" points="169.97,-130.12 163.67,-121.6 163.28,-132.19 169.97,-130.12"/>
<text text-anchor="middle" x="180.2" y="-140.5" font-family="Arial" font-size="10.00">fepro</text>
</g>
<!-- c:backend&#45;cache&#45;&gt;t:hazelcast -->
<g id="edge42" class="edge">
<title>c:backend&#45;cache&#45;&gt;t:hazelcast</title>
<path fill="none" stroke="black" d="M152.04,-167.71C148.09,-162.41 144.4,-156.31 142.33,-150 140.31,-143.84 140.71,-137.18 142.27,-130.87"/>
<polygon fill="black" stroke="black" points="145.56,-132.07 145.56,-121.48 138.95,-129.76 145.56,-132.07"/>
<text text-anchor="middle" x="153.2" y="-140.5" font-family="Arial" font-size="10.00">fepro</text>
</g>
<!-- t:caffeine -->
<g id="node25" class="node">
<title>t:caffeine</title>
<ellipse fill="lightgreen" stroke="black" cx="44.08" cy="-102" rx="44.08" ry="18"/>
<text text-anchor="middle" x="44.08" y="-96.58" font-family="Arial" font-size="14.00">Caffeine</text>
</g>
<!-- c:backend&#45;cache&#45;&gt;t:caffeine -->
<g id="edge24" class="edge">
<title>c:backend&#45;cache&#45;&gt;t:caffeine</title>
<path fill="none" stroke="black" d="M141.78,-167.61C122.6,-154.92 96.5,-137.66 76.1,-124.17"/>
<polygon fill="black" stroke="black" points="78.13,-121.32 67.86,-118.73 74.27,-127.16 78.13,-121.32"/>
<text text-anchor="middle" x="124.38" y="-140.5" font-family="Arial" font-size="10.00">fepro</text>
</g>
<!-- c:backend&#45;cache&#45;&gt;t:caffeine -->
<g id="edge43" class="edge">
<title>c:backend&#45;cache&#45;&gt;t:caffeine</title>
<path fill="none" stroke="black" d="M118.6,-173.54C102.96,-168.22 86.38,-160.64 73.33,-150 66.67,-144.57 61.1,-137.21 56.66,-129.92"/>
<polygon fill="black" stroke="black" points="59.94,-128.61 52.05,-121.54 53.81,-131.99 59.94,-128.61"/>
<text text-anchor="middle" x="84.2" y="-140.5" font-family="Arial" font-size="10.00">fepro</text>
</g>
<!-- t:r2dbc -->
<g id="node26" class="node">
<title>t:r2dbc</title>
<ellipse fill="lightgreen" stroke="black" cx="1298.08" cy="-102" rx="41.08" ry="18"/>
<text text-anchor="middle" x="1298.08" y="-96.58" font-family="Arial" font-size="14.00">R2DBC</text>
</g>
<!-- c:backend&#45;reactive&#45;&gt;t:r2dbc -->
<g id="edge25" class="edge">
<title>c:backend&#45;reactive&#45;&gt;t:r2dbc</title>
<path fill="none" stroke="black" d="M1254.22,-167.72C1252.55,-158.5 1252.04,-147.18 1256.33,-138 1258.65,-133.01 1262.08,-128.48 1265.99,-124.46"/>
<polygon fill="black" stroke="black" points="1268.18,-127.2 1273.34,-117.94 1263.54,-121.96 1268.18,-127.2"/>
<text text-anchor="middle" x="1267.2" y="-140.5" font-family="Arial" font-size="10.00">fepro</text>
</g>
<!-- c:backend&#45;reactive&#45;&gt;t:r2dbc -->
<g id="edge40" class="edge">
<title>c:backend&#45;reactive&#45;&gt;t:r2dbc</title>
<path fill="none" stroke="black" d="M1268.88,-167.72C1271.94,-162.13 1275.25,-155.85 1278.08,-150 1281.09,-143.76 1284.13,-136.95 1286.9,-130.5"/>
<polygon fill="black" stroke="black" points="1290.01,-132.11 1290.66,-121.54 1283.56,-129.4 1290.01,-132.11"/>
<text text-anchor="middle" x="1294.25" y="-140.5" font-family="Arial" font-size="10.00">fepro</text>
</g>
<!-- t:liquibase -->
<g id="node27" class="node">
<title>t:liquibase</title>
<ellipse fill="lightgreen" stroke="black" cx="1012.08" cy="-102" rx="49.07" ry="18"/>
<text text-anchor="middle" x="1012.08" y="-96.58" font-family="Arial" font-size="14.00">Liquibase</text>
</g>
<!-- c:backend&#45;migrations&#45;&gt;t:liquibase -->
<g id="edge26" class="edge">
<title>c:backend&#45;migrations&#45;&gt;t:liquibase</title>
<path fill="none" stroke="black" d="M927.5,-167.85C927.49,-158.22 929.06,-146.47 935.33,-138 941.93,-129.09 951.34,-122.39 961.31,-117.37"/>
<polygon fill="black" stroke="black" points="962.71,-120.58 970.44,-113.34 959.88,-114.18 962.71,-120.58"/>
<text text-anchor="middle" x="962.7" y="-140.5" font-family="Arial" font-size="10.00">fepro, femsq</text>
</g>
<!-- c:backend&#45;migrations&#45;&gt;t:liquibase -->
<g id="edge45" class="edge">
<title>c:backend&#45;migrations&#45;&gt;t:liquibase</title>
<path fill="none" stroke="black" d="M967.82,-167.55C975.87,-162.69 983.79,-156.83 990.08,-150 995.2,-144.43 999.33,-137.46 1002.57,-130.6"/>
<polygon fill="black" stroke="black" points="1005.73,-132.11 1006.35,-121.53 999.27,-129.41 1005.73,-132.11"/>
<text text-anchor="middle" x="1025.74" y="-140.5" font-family="Arial" font-size="10.00">fepro, femsq</text>
</g>
<!-- t:spring&#45;actuator -->
<g id="node28" class="node">
<title>t:spring&#45;actuator</title>
<ellipse fill="lightgreen" stroke="black" cx="1159.08" cy="-102" rx="72.02" ry="18"/>
<text text-anchor="middle" x="1159.08" y="-96.58" font-family="Arial" font-size="14.00">Spring Actuator</text>
</g>
<!-- c:backend&#45;monitoring&#45;&gt;t:spring&#45;actuator -->
<g id="edge27" class="edge">
<title>c:backend&#45;monitoring&#45;&gt;t:spring&#45;actuator</title>
<path fill="none" stroke="black" d="M1085.36,-167.61C1084.79,-158.13 1085.67,-146.61 1091.33,-138 1095.29,-131.97 1100.63,-126.93 1106.59,-122.72"/>
<polygon fill="black" stroke="black" points="1108.34,-125.75 1115.05,-117.56 1104.69,-119.77 1108.34,-125.75"/>
<text text-anchor="middle" x="1118.7" y="-140.5" font-family="Arial" font-size="10.00">fepro, femsq</text>
</g>
<!-- c:backend&#45;monitoring&#45;&gt;t:spring&#45;actuator -->
<g id="edge47" class="edge">
<title>c:backend&#45;monitoring&#45;&gt;t:spring&#45;actuator</title>
<path fill="none" stroke="black" d="M1126.37,-167.6C1133.75,-162.78 1140.82,-156.93 1146.08,-150 1150.21,-144.56 1153.03,-137.87 1154.95,-131.27"/>
<polygon fill="black" stroke="black" points="1158.26,-132.48 1157.08,-121.95 1151.44,-130.92 1158.26,-132.48"/>
<text text-anchor="middle" x="1163.33" y="-140.5" font-family="Arial" font-size="10.00">fepro</text>
</g>
<!-- t:spring&#45;boot@3.4.5&#45;&gt;c:backend&#45;api -->
<g id="edge32" class="edge">
<title>t:spring&#45;boot@3.4.5&#45;&gt;c:backend&#45;api</title>
<path fill="none" stroke="black" d="M667.02,-255.17C633.47,-245.61 587.63,-232.74 547.08,-222 520.18,-214.88 490.27,-207.35 465.02,-201.1"/>
<polygon fill="black" stroke="black" points="466.16,-197.78 455.62,-198.78 464.49,-204.58 466.16,-197.78"/>
<text text-anchor="middle" x="616.04" y="-224.5" font-family="Arial" font-size="10.00">fepro, femsq</text>
</g>
<!-- t:spring&#45;boot@3.4.5&#45;&gt;c:backend&#45;security -->
<g id="edge34" class="edge">
<title>t:spring&#45;boot@3.4.5&#45;&gt;c:backend&#45;security</title>
<path fill="none" stroke="black" d="M698.72,-252C689.3,-242.64 677,-231.12 665.08,-222 659.88,-218.02 654.2,-214.1 648.51,-210.4"/>
<polygon fill="black" stroke="black" points="650.62,-207.59 640.29,-205.23 646.89,-213.52 650.62,-207.59"/>
<text text-anchor="middle" x="706.96" y="-224.5" font-family="Arial" font-size="10.00">fepro, femsq</text>
</g>
<!-- t:spring&#45;boot@3.4.5&#45;&gt;c:backend&#45;cache -->
<g id="edge41" class="edge">
<title>t:spring&#45;boot@3.4.5&#45;&gt;c:backend&#45;cache</title>
<path fill="none" stroke="black" d="M654.07,-257.97C579.81,-244.55 462.99,-223.5 453.08,-222 375.9,-210.35 286.53,-199.86 228.74,-193.47"/>
<polygon fill="black" stroke="black" points="229.45,-190.02 219.12,-192.41 228.68,-196.98 229.45,-190.02"/>
<text text-anchor="middle" x="526.99" y="-224.5" font-family="Arial" font-size="10.00">fepro</text>
</g>
<!-- t:spring&#45;boot@3.4.5&#45;&gt;c:backend&#45;reactive -->
<g id="edge39" class="edge">
<title>t:spring&#45;boot@3.4.5&#45;&gt;c:backend&#45;reactive</title>
<path fill="none" stroke="black" d="M783.62,-260.38C870.73,-249.17 1025.96,-228.33 1167.94,-204.5"/>
<polygon fill="black" stroke="black" points="1168.24,-208 1177.52,-202.88 1167.07,-201.09 1168.24,-208"/>
<text text-anchor="middle" x="1057.03" y="-224.5" font-family="Arial" font-size="10.00">fepro</text>
</g>
<!-- t:spring&#45;boot@3.4.5&#45;&gt;c:backend&#45;migrations -->
<g id="edge44" class="edge">
<title>t:spring&#45;boot@3.4.5&#45;&gt;c:backend&#45;migrations</title>
<path fill="none" stroke="black" d="M753.81,-253.88C777.6,-244.63 808.7,-232.57 836.33,-222 847.9,-217.58 860.29,-212.87 872.13,-208.4"/>
<polygon fill="black" stroke="black" points="873.28,-211.71 881.4,-204.9 870.81,-205.16 873.28,-211.71"/>
<text text-anchor="middle" x="863.7" y="-224.5" font-family="Arial" font-size="10.00">fepro, femsq</text>
</g>
<!-- t:spring&#45;boot@3.4.5&#45;&gt;c:backend&#45;monitoring -->
<g id="edge46" class="edge">
<title>t:spring&#45;boot@3.4.5&#45;&gt;c:backend&#45;monitoring</title>
<path fill="none" stroke="black" d="M774.67,-257.73C808.81,-251.13 852.43,-242.45 891.08,-234 929.37,-225.63 971.66,-215.64 1007.22,-207.02"/>
<polygon fill="black" stroke="black" points="1007.66,-210.52 1016.55,-204.75 1006.01,-203.71 1007.66,-210.52"/>
<text text-anchor="middle" x="950.73" y="-224.5" font-family="Arial" font-size="10.00">fepro</text>
</g>
<!-- t:java@21&#45;&gt;c:backend&#45;framework -->
<g id="edge30" class="edge">
<title>t:java@21&#45;&gt;c:backend&#45;framework</title>
<path fill="none" stroke="black" d="M727.9,-419.61C725.99,-409.17 723.51,-395.64 721.32,-383.66"/>
<polygon fill="black" stroke="black" points="724.77,-383.06 719.53,-373.85 717.88,-384.32 724.77,-383.06"/>
<text text-anchor="middle" x="751.85" y="-392.5" font-family="Arial" font-size="10.00">fepro, femsq</text>
</g>
<!-- c:backend&#45;stack&#45;&gt;t:java@21 -->
<g id="edge29" class="edge">
<title>c:backend&#45;stack&#45;&gt;t:java@21</title>
<path fill="none" stroke="black" d="M853.99,-503.61C828.41,-490.16 793.05,-471.58 766.82,-457.79"/>
<polygon fill="black" stroke="black" points="768.72,-454.83 758.24,-453.28 765.47,-461.03 768.72,-454.83"/>
<text text-anchor="middle" x="845.79" y="-476.5" font-family="Arial" font-size="10.00">fepro, femsq</text>
</g>
<!-- c:with&#45;security&#45;&gt;t:jwt -->
<g id="edge37" class="edge">
<title>c:with&#45;security&#45;&gt;t:jwt</title>
<path fill="none" stroke="black" d="M659.06,-83.51C704.67,-67.86 770.4,-45.31 810.84,-31.43"/>
<polygon fill="black" stroke="black" points="811.78,-34.81 820.11,-28.25 809.51,-28.19 811.78,-34.81"/>
<text text-anchor="middle" x="752.76" y="-56.5" font-family="Arial" font-size="10.00">fepro</text>
</g>
<!-- c:with&#45;security&#45;&gt;t:spring&#45;security -->
<g id="edge38" class="edge">
<title>c:with&#45;security&#45;&gt;t:spring&#45;security</title>
<path fill="none" stroke="black" d="M593.44,-83.61C583.96,-72.34 571.43,-57.45 560.79,-44.81"/>
<polygon fill="black" stroke="black" points="563.54,-42.64 554.43,-37.24 558.19,-47.15 563.54,-42.64"/>
<text text-anchor="middle" x="588.58" y="-56.5" font-family="Arial" font-size="10.00">fepro</text>
</g>
</g>
</svg>
